<svg xmlns="http://www.w3.org/2000/svg" viewBox="0 0 200 200" width="200" height="200">
  <defs>
    <!-- Soft watercolor gradients -->
    <radialGradient id="rose" cx="30%" cy="30%" r="70%">
      <stop offset="0%" stop-color="#f2d5d5" stop-opacity="0.9"/>
      <stop offset="100%" stop-color="#d4a5a5" stop-opacity="0.8"/>
    </radialGradient>
    <radialGradient id="jasmine" cx="40%" cy="40%" r="60%">
      <stop offset="0%" stop-color="#ffffff" stop-opacity="0.9"/>
      <stop offset="100%" stop-color="#fdf6e9" stop-opacity="0.7"/>
    </radialGradient>
    <linearGradient id="leaf" x1="0%" y1="0%" x2="100%" y2="100%">
      <stop offset="0%" stop-color="#b5c4b1" stop-opacity="0.8"/>
      <stop offset="100%" stop-color="#8a9e84" stop-opacity="0.7"/>
    </linearGradient>
    <filter id="water-texture">
      <feTurbulence type="fractalNoise" baseFrequency="0.04" numOctaves="3" result="noise"/>
      <feColorMatrix type="matrix" values="1 0 0 0 0  0 1 0 0 0  0 0 1 0 0  0 0 0 0.1 0" in="noise" result="coloredNoise"/>
      <feComposite operator="in" in="coloredNoise" in2="SourceGraphic" result="texture"/>
      <feBlend mode="multiply" in="texture" in2="SourceGraphic"/>
    </filter>
  </defs>

  <!-- Group anchored top-left -->
  <g filter="url(#water-texture)">
    <!-- Leaves sweeping right and down -->
    <path d="M10,20 Q60,10 80,40 Q50,45 20,35 Z" fill="url(#leaf)"/>
    <path d="M20,10 Q25,80 50,110 Q40,70 35,20 Z" fill="url(#leaf)"/>
    <path d="M40,30 Q90,50 110,80 Q70,70 50,40 Z" fill="url(#leaf)"/>

    <!-- Large Rose -->
    <path d="M15,15 Q40,5 60,25 Q70,50 45,70 Q20,80 0,60 Q-10,35 15,15 Z" fill="url(#rose)"/>
    <path d="M25,25 Q45,15 50,35 Q40,55 25,50 Q10,40 25,25 Z" fill="#e8c8c8" opacity="0.6"/>
    <path d="M30,30 Q40,25 40,35 Q30,40 30,30 Z" fill="#d4a5a5" opacity="0.7"/>

    <!-- Jasmine buds -->
    <ellipse cx="75" cy="25" rx="8" ry="12" fill="url(#jasmine)" transform="rotate(45 75 25)"/>
    <ellipse cx="85" cy="35" rx="7" ry="10" fill="url(#jasmine)" transform="rotate(60 85 35)"/>
    <ellipse cx="25" cy="85" rx="8" ry="12" fill="url(#jasmine)" transform="rotate(-30 25 85)"/>
    <ellipse cx="35" cy="95" rx="7" ry="10" fill="url(#jasmine)" transform="rotate(-15 35 95)"/>

    <!-- Delicate gold vines -->
    <path d="M30,30 Q100,-10 140,40" fill="none" stroke="#b8922a" stroke-width="1.5" stroke-linecap="round" opacity="0.7"/>
    <path d="M30,30 Q20,120 70,140" fill="none" stroke="#b8922a" stroke-width="1.5" stroke-linecap="round" opacity="0.7"/>
    
    <!-- Berry dots -->
    <circle cx="110" cy="20" r="2.5" fill="#b8922a" opacity="0.8"/>
    <circle cx="120" cy="25" r="2" fill="#b8922a" opacity="0.8"/>
    <circle cx="125" cy="18" r="1.5" fill="#b8922a" opacity="0.8"/>
    
    <circle cx="40" cy="115" r="2.5" fill="#b8922a" opacity="0.8"/>
    <circle cx="50" cy="125" r="2" fill="#b8922a" opacity="0.8"/>
  </g>
</svg>
